<svg class="svg-icon" style="width: 1em; height: 1em;vertical-align: middle;fill: currentColor;overflow: hidden;" viewBox="0 0 1024 1024" version="1.1" xmlns="http://www.w3.org/2000/svg"><path d="M768 469.333333H256V256h512m-64 469.333333a64 64 0 0 1-64-64 64 64 0 0 1 64-64 64 64 0 0 1 64 64 64 64 0 0 1-64 64m-384 0A64 64 0 0 1 256 661.333333 64 64 0 0 1 320 597.333333 64 64 0 0 1 384 661.333333 64 64 0 0 1 320 725.333333M170.666667 682.666667c0 37.546667 16.64 71.253333 42.666666 94.72V853.333333a42.666667 42.666667 0 0 0 42.666667 42.666667h42.666667a42.666667 42.666667 0 0 0 42.666666-42.666667v-42.666666h341.333334v42.666666a42.666667 42.666667 0 0 0 42.666666 42.666667h42.666667a42.666667 42.666667 0 0 0 42.666667-42.666667v-75.946666c26.026667-23.466667 42.666667-57.173333 42.666666-94.72V256c0-149.333333-152.746667-170.666667-341.333333-170.666667s-341.333333 21.333333-341.333333 170.666667v426.666667z" fill="red" /></svg>